<svg id="visual" viewBox="0 0 960 540" width="960" height="540" xmlns="http://www.w3.org/2000/svg" xmlns:xlink="http://www.w3.org/1999/xlink" version="1.1"><path d="M0 300L22.8 299.8C45.7 299.7 91.3 299.3 137 305C182.7 310.7 228.3 322.3 274 329.3C319.7 336.3 365.3 338.7 411.2 331.7C457 324.7 503 308.3 548.8 308C594.7 307.7 640.3 323.3 686 328.8C731.7 334.3 777.3 329.7 823 317.3C868.7 305 914.3 285 937.2 275L960 265L960 541L937.2 541C914.3 541 868.7 541 823 541C777.3 541 731.7 541 686 541C640.3 541 594.7 541 548.8 541C503 541 457 541 411.2 541C365.3 541 319.7 541 274 541C228.3 541 182.7 541 137 541C91.3 541 45.7 541 22.8 541L0 541Z" fill="#c0b9f3"></path><path d="M0 349L22.8 361C45.7 373 91.3 397 137 407.8C182.7 418.7 228.3 416.3 274 412.8C319.7 409.3 365.3 404.7 411.2 409.3C457 414 503 428 548.8 427C594.7 426 640.3 410 686 403.7C731.7 397.3 777.3 400.7 823 392.7C868.7 384.7 914.3 365.3 937.2 355.7L960 346L960 541L937.2 541C914.3 541 868.7 541 823 541C777.3 541 731.7 541 686 541C640.3 541 594.7 541 548.8 541C503 541 457 541 411.2 541C365.3 541 319.7 541 274 541C228.3 541 182.7 541 137 541C91.3 541 45.7 541 22.8 541L0 541Z" fill="#a19aed"></path><path d="M0 481L22.8 478.7C45.7 476.3 91.3 471.7 137 462C182.7 452.3 228.3 437.7 274 440.2C319.7 442.7 365.3 462.3 411.2 465.7C457 469 503 456 548.8 453.3C594.7 450.7 640.3 458.3 686 453.3C731.7 448.3 777.3 430.7 823 427.8C868.7 425 914.3 437 937.2 443L960 449L960 541L937.2 541C914.3 541 868.7 541 823 541C777.3 541 731.7 541 686 541C640.3 541 594.7 541 548.8 541C503 541 457 541 411.2 541C365.3 541 319.7 541 274 541C228.3 541 182.7 541 137 541C91.3 541 45.7 541 22.8 541L0 541Z" fill="#7c71d6"></path></svg>